<svg width="30" height="22" viewBox="0 0 30 22" fill="none" xmlns="http://www.w3.org/2000/svg">
<path d="M26.2443 0H11.2216C9.31972 0 6.96416 1.16567 5.85849 2.65344L1.93756 7.93L0.136333 10.3552C-0.0454415 10.608 -0.0469437 11.0659 0.14084 11.3143L1.92554 13.7179L5.85999 19.0147C6.96416 20.501 9.31822 21.6667 11.2216 21.6667H26.2443C28.316 21.6667 30 20.046 30 18.0556V3.61111C30 1.62067 28.316 0 26.2443 0ZM22.7996 14.1454C22.9391 14.2796 23.0497 14.4388 23.1252 14.614C23.2007 14.7892 23.2395 14.977 23.2395 15.1667C23.2395 15.3563 23.2007 15.5441 23.1252 15.7193C23.0497 15.8946 22.9391 16.0538 22.7996 16.1879C22.6601 16.322 22.4945 16.4284 22.3123 16.501C22.1301 16.5735 21.9348 16.6109 21.7375 16.6109C21.5403 16.6109 21.3449 16.5735 21.1627 16.501C20.9805 16.4284 20.8149 16.322 20.6754 16.1879L17.2307 12.8758L13.786 16.1879C13.6468 16.3225 13.4813 16.4293 13.299 16.5022C13.1167 16.5751 12.9213 16.6126 12.7239 16.6126C12.5265 16.6126 12.331 16.5751 12.1487 16.5022C11.9664 16.4293 11.801 16.3225 11.6618 16.1879C11.5221 16.0539 11.4114 15.8947 11.3358 15.7194C11.2602 15.5442 11.2213 15.3564 11.2213 15.1667C11.2213 14.977 11.2602 14.7891 11.3358 14.6139C11.4114 14.4387 11.5221 14.2795 11.6618 14.1454L15.1065 10.8333L11.6618 7.52122C11.5223 7.38711 11.4116 7.2279 11.3362 7.05268C11.2607 6.87746 11.2218 6.68966 11.2218 6.5C11.2218 6.31034 11.2607 6.12254 11.3362 5.94732C11.4116 5.7721 11.5223 5.61289 11.6618 5.47878C11.8012 5.34467 11.9668 5.23829 12.1491 5.16571C12.3313 5.09313 12.5266 5.05577 12.7239 5.05577C12.9211 5.05577 13.1164 5.09313 13.2987 5.16571C13.4809 5.23829 13.6465 5.34467 13.786 5.47878L17.2307 8.79089L20.6754 5.47878C20.8149 5.34467 20.9805 5.23829 21.1627 5.16571C21.3449 5.09313 21.5403 5.05577 21.7375 5.05577C21.9348 5.05577 22.1301 5.09313 22.3123 5.16571C22.4945 5.23829 22.6601 5.34467 22.7996 5.47878C22.9391 5.61289 23.0497 5.7721 23.1252 5.94732C23.2007 6.12254 23.2395 6.31034 23.2395 6.5C23.2395 6.68966 23.2007 6.87746 23.1252 7.05268C23.0497 7.2279 22.9391 7.38711 22.7996 7.52122L19.3549 10.8333L22.7996 14.1454Z" fill="white"/>
</svg>
